<svg width="24" height="24" xmlns="http://www.w3.org/2000/svg" fill="none">
 <g>
  <path id="svg_1" fill="#5e69db" d="m12,1c-5.5102,0 -10,4.4898 -10,10c0,5.5102 4.4898,10 10,10c5.5102,0 10,-4.4898 10,-10c0,-5.5102 -4.4898,-10 -10,-10zm3.5714,8.4694l-4.0816,4.0816c-0.2041,0.1021 -0.3061,0.2041 -0.5102,0.2041c-0.2041,0 -0.4082,-0.102 -0.5102,-0.2041l-2.04083,-2.0408c-0.30612,-0.3061 -0.30612,-0.8163 0,-1.1224c0.30612,-0.3062 0.81633,-0.3062 1.12245,0l1.53058,1.5306l3.5715,-3.57146c0.3061,-0.30612 0.8163,-0.30612 1.1224,0c0.1021,0.40816 0.1021,0.81636 -0.2041,1.12246z"/>
  <polyline stroke="null" stroke-linecap="round" id="svg_2" points="138,97 139,97 " fill="none"/>
 </g>
</svg>