<?xml version="1.0" standalone="no"?>
<!DOCTYPE svg PUBLIC "-//W3C//DTD SVG 20010904//EN"
 "http://www.w3.org/TR/2001/REC-SVG-20010904/DTD/svg10.dtd">
<svg version="1.0" xmlns="http://www.w3.org/2000/svg"
 width="340.000000pt" height="340.000000pt" viewBox="0 0 340.000000 340.000000"
 preserveAspectRatio="xMidYMid meet">
<metadata>
Created by potrace 1.14, written by Peter Selinger 2001-2017
</metadata>
<g transform="translate(0.000000,340.000000) scale(0.100000,-0.100000)"
fill="#000000" stroke="none">
<path d="M1674 3138 c-78 -44 -209 -119 -224 -128 -31 -20 -222 -130 -225
-130 -2 0 -47 -26 -102 -58 -100 -60 -369 -216 -407 -236 -12 -6 -69 -40 -128
-75 -98 -57 -127 -81 -97 -81 6 0 63 -31 127 -69 64 -37 241 -140 392 -227
151 -87 371 -213 489 -281 117 -68 215 -123 217 -123 2 0 149 84 327 186 294
171 406 235 775 448 67 39 123 75 123 80 1 8 -654 393 -921 543 -25 14 -102
58 -172 99 -69 41 -128 74 -130 74 -2 0 -21 -10 -44 -22z m351 -318 c149 -86
293 -169 320 -184 183 -102 325 -190 318 -196 -6 -6 -760 -442 -908 -526 l-40
-23 -70 41 c-64 37 -359 207 -430 248 -317 181 -455 264 -448 270 4 5 24 17
43 28 40 22 414 237 705 405 170 99 202 114 220 105 11 -6 142 -82 290 -168z"/>
<path d="M2601 2085 c-233 -135 -427 -245 -432 -245 -5 0 -9 -4 -9 -10 0 -5
-4 -10 -10 -10 -5 0 -47 -22 -92 -49 -46 -27 -99 -58 -118 -68 -19 -11 -63
-37 -96 -56 l-61 -36 -1 -716 0 -715 72 39 c39 21 179 101 311 178 132 77 364
211 515 298 151 87 291 168 310 179 l35 21 0 718 c0 394 0 717 0 717 0 0 -191
-110 -424 -245z m284 -556 l0 -552 -245 -141 c-550 -319 -702 -406 -709 -406
-4 0 -7 248 -7 551 l1 550 265 153 c146 84 360 207 475 274 116 67 212 122
215 122 3 0 5 -248 5 -551z"/>
<path d="M409 2308 c-5 -115 2 -1413 8 -1418 4 -4 233 -137 508 -295 275 -158
528 -305 562 -326 34 -22 65 -39 68 -39 3 0 23 -11 45 -25 22 -14 42 -25 44
-25 3 0 5 324 4 720 0 420 -4 720 -9 720 -5 0 -57 29 -116 63 -110 65 -609
354 -673 390 -62 35 -356 205 -391 226 -39 24 -49 26 -50 9z m431 -393 c135
-78 340 -197 457 -264 l211 -122 0 -550 c0 -338 -3 -549 -9 -549 -5 0 -26 11
-47 23 -20 13 -57 35 -82 49 -67 37 -814 469 -818 473 -3 3 -4 280 -2 920 l0
186 23 -12 c12 -7 132 -76 267 -154z"/>
</g>
</svg>
