<svg id="Group_326" data-name="Group 326" xmlns="http://www.w3.org/2000/svg" width="17.129" height="17.129" viewBox="0 0 17.129 17.129">
  <path id="Path_288" data-name="Path 288" d="M0,0H17.129V17.129H0Z" fill="none"/>
  <path id="Path_289" data-name="Path 289" d="M8,10.423V5.071a1.071,1.071,0,1,1,2.141,0V9.71" transform="translate(-2.29 -1.145)" fill="none" stroke="#fff" stroke-linecap="round" stroke-linejoin="round" stroke-width="1"/>
  <path id="Path_290" data-name="Path 290" d="M11,4.5V3.071a1.071,1.071,0,0,1,2.141,0V9.137" transform="translate(-3.149 -0.573)" fill="none" stroke="#fff" stroke-linecap="round" stroke-linejoin="round" stroke-width="1"/>
  <path id="Path_291" data-name="Path 291" d="M14,5.071a1.071,1.071,0,1,1,2.141,0V9.71" transform="translate(-4.008 -1.145)" fill="none" stroke="#fff" stroke-linecap="round" stroke-linejoin="round" stroke-width="1"/>
  <path id="Path_292" data-name="Path 292" d="M13.141,7.071a1.071,1.071,0,1,1,2.141,0v6.066A4.282,4.282,0,0,1,11,17.419H9.721a4.283,4.283,0,0,1-3.577-1.928L6,15.278q-.334-.513-2.345-4.088a1.071,1.071,0,0,1,.383-1.443,1.332,1.332,0,0,1,1.627.2L6.718,11" transform="translate(-1.008 -1.718)" fill="none" stroke="#fff" stroke-linecap="round" stroke-linejoin="round" stroke-width="1"/>
</svg>
