<svg xmlns="http://www.w3.org/2000/svg" width="10" height="19.5" viewBox="0 0 10 19.5">
  <g id="sorter" transform="translate(-1715.5 -316.5)">
    <path id="Polygon_16" data-name="Polygon 16" d="M4.152,1.357a1,1,0,0,1,1.7,0l3.2,5.113A1,1,0,0,1,8.2,8H1.8A1,1,0,0,1,.956,6.47Z" transform="translate(1725.5 336) rotate(180)" fill="#262e80"/>
    <path id="Polygon_17" data-name="Polygon 17" d="M4.152,1.357a1,1,0,0,1,1.7,0l3.2,5.113A1,1,0,0,1,8.2,8H1.8A1,1,0,0,1,.956,6.47Z" transform="translate(1715.5 316.5)" fill="#262e80"/>
  </g>
</svg>
